<?xml version="1.0" encoding="UTF-8" standalone="no"?>
<!DOCTYPE svg PUBLIC "-//W3C//DTD SVG 1.1//EN" "http://www.w3.org/Graphics/SVG/1.1/DTD/svg11.dtd">
<svg width="100%" height="100%" viewBox="0 0 16 16" version="1.1" xmlns="http://www.w3.org/2000/svg" xmlns:xlink="http://www.w3.org/1999/xlink" xml:space="preserve" xmlns:serif="http://www.serif.com/" style="fill-rule:evenodd;clip-rule:evenodd;stroke-linejoin:round;stroke-miterlimit:2;">
    <path d="M6.759,7.582L1.033,13.908C0.893,14.063 0.863,14.288 0.959,14.473C1.054,14.658 1.255,14.765 1.462,14.741L5.27,14.294C5.432,14.275 5.575,14.178 5.652,14.034C5.73,13.89 5.732,13.718 5.658,13.572L5.613,13.482C5.613,13.482 5.762,13.502 5.762,13.502C5.931,13.524 6.099,13.46 6.209,13.33C6.319,13.201 6.356,13.025 6.307,12.862L6.246,12.659C6.246,12.659 6.697,12.68 6.697,12.68C6.866,12.688 7.028,12.61 7.127,12.473C7.226,12.336 7.248,12.158 7.187,12L7.1,11.774C7.1,11.774 7.467,11.769 7.467,11.769C7.616,11.766 7.756,11.698 7.849,11.583C7.942,11.467 7.979,11.316 7.95,11.17L7.89,10.873C7.89,10.873 8.276,10.872 8.276,10.872C8.42,10.872 8.557,10.81 8.651,10.701C8.746,10.593 8.789,10.449 8.771,10.306L8.726,9.971L9.024,9.978L13.244,14.443C13.338,14.571 13.488,14.646 13.647,14.646C13.779,14.646 13.906,14.594 14,14.5L15.5,13C15.687,12.813 15.695,12.507 15.517,12.311L11.152,8.184C11.201,8.097 11.223,7.995 11.213,7.893L11.204,7.795C11.204,7.795 11.488,7.734 11.488,7.734C11.732,7.682 11.901,7.458 11.883,7.209L11.867,6.989C11.867,6.989 13.09,6.827 13.09,6.827C13.189,6.814 13.282,6.772 13.356,6.705L15.441,4.855C15.473,4.826 15.501,4.795 15.524,4.76L15.564,4.746L15.572,4.739C15.809,4.534 15.915,4.245 15.873,3.891C15.818,3.413 15.408,2.739 14.871,2.18C14.337,1.625 13.687,1.193 13.237,1.108C12.87,1.038 12.579,1.14 12.381,1.372L8.491,5.669L6.388,3.681C7.135,3.225 8.16,2.842 9.5,2.842C9.712,2.842 9.902,2.708 9.972,2.508C10.042,2.308 9.978,2.084 9.812,1.952L9.634,1.823C9.009,1.41 8.3,1.143 7.558,1.04C6.215,0.862 4.504,1.229 2.84,3.133L1.786,3.133C1.653,3.133 1.526,3.186 1.432,3.28L0.146,4.567C-0.047,4.761 -0.047,5.079 0.146,5.273L2.717,7.852C2.811,7.946 2.938,7.999 3.071,7.999C3.204,7.999 3.331,7.946 3.425,7.852L4.711,6.562C4.804,6.468 4.857,6.341 4.857,6.209L4.857,5.57L6.759,7.582ZM14.557,3.961C14.511,3.763 14.313,3.31 14.005,3.03C13.691,2.744 13.154,2.506 12.996,2.508C12.91,2.509 12.839,2.533 12.787,2.583C12.577,2.787 12.788,3.347 13.259,3.833C13.73,4.319 14.284,4.547 14.494,4.343C14.578,4.262 14.595,4.126 14.557,3.961Z" style="fill-rule:nonzero;"/>
</svg>
