<?xml version="1.0" encoding="UTF-8" standalone="no"?>
<!DOCTYPE svg PUBLIC "-//W3C//DTD SVG 1.1//EN" "http://www.w3.org/Graphics/SVG/1.1/DTD/svg11.dtd">
<!--suppress CssNonIntegerLengthInPixels, CssNonIntegerLengthInPixels -->
NonIntegerLengthInPixels -->
NonIntegerLengthInPixels -->
NonIntegerLengthInPixels -->
NonIntegerLengthInPixels -->
NonIntegerLengthInPixels -->
NonIntegerLengthInPixels -->
NonIntegerLengthInPixels -->
<svg height="100%" style="fill-rule:evenodd;clip-rule:evenodd;stroke-linejoin:round;stroke-miterlimit:2;" version="1.1"
     viewBox="0 0 300 86" width="100%"
     xml:space="preserve" xmlns="http://www.w3.org/2000/svg" xmlns:serif="http://www.serif.com/"
     xmlns:xlink="http://www.w3.org/1999/xlink">
    <g id="ArtBoard1" transform="matrix(1,0,0,1,-116,-221)">
        <rect x="116" y="221" width="300" height="86" style="fill:none;"/>
      <clipPath id="_clip1">
            <rect x="116" y="221" width="300" height="86"/>
        </clipPath>
      <g clip-path="url(#_clip1)">
            <g id="vvtv" transform="matrix(1.20748,0,0,1.20673,-45.3491,46.5339)">
                <rect x="98.013" y="215.845" width="294" height="91.155" style="fill:rgb(23,23,23);"/>
            </g>
        <g transform="matrix(0.943531,0,0,1,9.97691,108)">
                <path
                  d="M139.56,162L139.56,147.15C139.56,146.38 139.505,145.647 139.395,144.95C139.285,144.253 139.074,143.639 138.763,143.108C138.451,142.576 138.038,142.154 137.525,141.843C137.012,141.531 136.352,141.375 135.545,141.375C133.968,141.375 132.758,141.934 131.915,143.053C131.072,144.171 130.65,145.555 130.65,147.205L130.65,162L121.63,162L121.63,120.42L130.65,120.42L130.65,138.075L130.76,138.075C131.383,136.975 132.373,135.994 133.73,135.133C135.087,134.271 136.718,133.84 138.625,133.84C140.495,133.84 142.063,134.17 143.327,134.83C144.593,135.49 145.619,136.343 146.408,137.388C147.196,138.433 147.764,139.633 148.113,140.99C148.461,142.347 148.635,143.703 148.635,145.06L148.635,162L139.56,162Z"
                  style="fill:white;fill-rule:nonzero;stroke:white;stroke-width:1.03px;"/>
          <path
            d="M171.625,150.065L170.47,150.065C169.48,150.065 168.481,150.111 167.473,150.203C166.464,150.294 165.566,150.468 164.778,150.725C163.989,150.982 163.338,151.358 162.825,151.853C162.312,152.348 162.055,152.998 162.055,153.805C162.055,154.318 162.174,154.758 162.413,155.125C162.651,155.492 162.953,155.785 163.32,156.005C163.687,156.225 164.108,156.381 164.585,156.473C165.062,156.564 165.52,156.61 165.96,156.61C167.793,156.61 169.196,156.106 170.168,155.098C171.139,154.089 171.625,152.723 171.625,151L171.625,150.065ZM155.07,138.35C156.683,136.81 158.563,135.655 160.708,134.885C162.853,134.115 165.043,133.73 167.28,133.73C169.59,133.73 171.543,134.014 173.137,134.583C174.733,135.151 176.025,136.031 177.015,137.223C178.005,138.414 178.729,139.918 179.188,141.733C179.646,143.548 179.875,145.702 179.875,148.195L179.875,156.165L181.14,159L173.315,162L171.625,159.085L171.46,159.085C170.763,160.222 169.709,161.102 168.298,161.725C166.886,162.348 165.355,162.66 163.705,162.66C162.605,162.66 161.468,162.513 160.295,162.22C159.122,161.927 158.049,161.45 157.078,160.79C156.106,160.13 155.308,159.25 154.685,158.15C154.062,157.05 153.75,155.693 153.75,154.08C153.75,152.1 154.291,150.505 155.373,149.295C156.454,148.085 157.848,147.15 159.553,146.49C161.258,145.83 163.155,145.39 165.245,145.17C167.335,144.95 169.37,144.84 171.35,144.84L171.35,144.4C171.35,143.043 170.873,142.044 169.92,141.403C168.967,140.761 167.793,140.44 166.4,140.44C165.117,140.44 163.879,140.715 162.688,141.265C161.496,141.815 160.478,142.475 159.635,143.245L155.07,138.35Z"
            style="fill:white;fill-rule:nonzero;stroke:white;stroke-width:1.03px;"/>
          <g transform="matrix(0.831388,0,0,1,31.4605,0)">
                    <path
                      d="M221.565,162L221.565,147.04C221.565,146.27 221.51,145.528 221.4,144.813C221.29,144.098 221.088,143.483 220.795,142.97C220.502,142.457 220.108,142.044 219.613,141.733C219.118,141.421 218.467,141.265 217.66,141.265C216.89,141.265 216.221,141.43 215.653,141.76C215.084,142.09 214.607,142.53 214.223,143.08C213.838,143.63 213.553,144.263 213.37,144.978C213.187,145.693 213.095,146.435 213.095,147.205L213.095,162L204.075,162L204.075,146.38C204.075,144.803 203.763,143.557 203.14,142.64C202.517,141.723 201.527,141.265 200.17,141.265C198.74,141.265 197.631,141.833 196.843,142.97C196.054,144.107 195.66,145.5 195.66,147.15L195.66,162L186.585,162L186.585,134.61L195.33,134.61L195.33,138.405L195.44,138.405C195.77,137.818 196.183,137.25 196.678,136.7C197.172,136.15 197.768,135.664 198.465,135.243C199.162,134.821 199.941,134.482 200.803,134.225C201.664,133.968 202.608,133.84 203.635,133.84C205.615,133.84 207.293,134.243 208.667,135.05C210.042,135.857 211.115,137.012 211.885,138.515C212.802,137.085 213.975,135.948 215.405,135.105C216.835,134.262 218.577,133.84 220.63,133.84C222.5,133.84 224.068,134.179 225.332,134.858C226.598,135.536 227.615,136.416 228.385,137.498C229.155,138.579 229.714,139.789 230.063,141.128C230.411,142.466 230.585,143.777 230.585,145.06L230.585,162L221.565,162Z"
                      style="fill:white;fill-rule:nonzero;stroke:white;stroke-width:1.11px;"/>
                </g>
          <g transform="matrix(0.831388,0,0,1,75.2763,-0.11)">
                    <path
                      d="M221.565,162L221.565,147.04C221.565,146.27 221.51,145.528 221.4,144.813C221.29,144.098 221.088,143.483 220.795,142.97C220.502,142.457 220.108,142.044 219.613,141.733C219.118,141.421 218.467,141.265 217.66,141.265C216.89,141.265 216.221,141.43 215.653,141.76C215.084,142.09 214.607,142.53 214.223,143.08C213.838,143.63 213.553,144.263 213.37,144.978C213.187,145.693 213.095,146.435 213.095,147.205L213.095,162L204.075,162L204.075,146.38C204.075,144.803 203.763,143.557 203.14,142.64C202.517,141.723 201.527,141.265 200.17,141.265C198.74,141.265 197.631,141.833 196.843,142.97C196.054,144.107 195.66,145.5 195.66,147.15L195.66,162L186.585,162L186.585,134.61L195.33,134.61L195.33,138.405L195.44,138.405C195.77,137.818 196.183,137.25 196.678,136.7C197.172,136.15 197.768,135.664 198.465,135.243C199.162,134.821 199.941,134.482 200.803,134.225C201.664,133.968 202.608,133.84 203.635,133.84C205.615,133.84 207.293,134.243 208.667,135.05C210.042,135.857 211.115,137.012 211.885,138.515C212.802,137.085 213.975,135.948 215.405,135.105C216.835,134.262 218.577,133.84 220.63,133.84C222.5,133.84 224.068,134.179 225.332,134.858C226.598,135.536 227.615,136.416 228.385,137.498C229.155,138.579 229.714,139.789 230.063,141.128C230.411,142.466 230.585,143.777 230.585,145.06L230.585,162L221.565,162Z"
                      style="fill:white;fill-rule:nonzero;stroke:white;stroke-width:1.11px;"/>
                </g>
          <g transform="matrix(1,0,0,1,-14.7933,0.11)">
                    <path
                      d="M307.09,145.17C307.09,143.74 306.641,142.512 305.743,141.485C304.844,140.458 303.497,139.945 301.7,139.945C300.82,139.945 300.013,140.083 299.28,140.358C298.547,140.633 297.905,141.008 297.355,141.485C296.805,141.962 296.365,142.521 296.035,143.163C295.705,143.804 295.522,144.473 295.485,145.17L307.09,145.17ZM315.395,148.635L315.395,149.735C315.395,150.102 315.377,150.45 315.34,150.78L295.485,150.78C295.558,151.55 295.787,152.247 296.172,152.87C296.558,153.493 297.053,154.034 297.657,154.493C298.263,154.951 298.941,155.308 299.693,155.565C300.444,155.822 301.223,155.95 302.03,155.95C303.46,155.95 304.67,155.684 305.66,155.153C306.65,154.621 307.457,153.933 308.08,153.09L314.35,157.05C313.067,158.92 311.371,160.359 309.263,161.368C307.154,162.376 304.707,162.88 301.92,162.88C299.867,162.88 297.923,162.559 296.09,161.918C294.257,161.276 292.652,160.341 291.277,159.113C289.902,157.884 288.821,156.372 288.032,154.575C287.244,152.778 286.85,150.725 286.85,148.415C286.85,146.178 287.235,144.153 288.005,142.338C288.775,140.523 289.82,138.983 291.14,137.718C292.46,136.453 294.018,135.472 295.815,134.775C297.612,134.078 299.555,133.73 301.645,133.73C303.662,133.73 305.513,134.069 307.2,134.748C308.887,135.426 310.335,136.407 311.545,137.69C312.755,138.973 313.699,140.532 314.378,142.365C315.056,144.198 315.395,146.288 315.395,148.635Z"
                      style="fill:white;fill-rule:nonzero;stroke:white;stroke-width:1.03px;"/>
                </g>
          <g transform="matrix(1,0,0,1,-15.3285,0)">
                    <path
                      d="M338.77,141.98C338.367,141.87 337.973,141.797 337.588,141.76C337.203,141.723 336.827,141.705 336.46,141.705C335.25,141.705 334.233,141.925 333.408,142.365C332.583,142.805 331.923,143.337 331.428,143.96C330.933,144.583 330.575,145.262 330.355,145.995C330.135,146.728 330.025,147.37 330.025,147.92L330.025,162L321.005,162L321.005,134.61L329.695,134.61L329.695,138.57L329.805,138.57C330.502,137.177 331.492,136.04 332.775,135.16C334.058,134.28 335.543,133.84 337.23,133.84C337.597,133.84 337.954,133.858 338.303,133.895C338.651,133.932 338.935,133.987 339.155,134.06L338.77,141.98Z"
                      style="fill:white;fill-rule:nonzero;stroke:white;stroke-width:1.03px;"/>
                </g>
          <g transform="matrix(1,0,0,1,-12.1935,-0.77)">
                    <path
                      d="M341.135,162L341.135,154.96L354.005,141.54L341.63,141.54L341.63,134.61L365.005,134.61L365.005,141.375L351.75,155.015L365.555,155.015L365.555,162C357.494,160.127 349.417,159.782 341.135,162Z"
                      style="fill:white;fill-rule:nonzero;stroke:white;stroke-width:1.03px;"/>
                </g>
          <g transform="matrix(1,0,0,1,-11.1336,-0.99)">
                    <path
                      d="M399.985,148.195C399.985,150.432 399.582,152.458 398.775,154.273C397.968,156.088 396.868,157.628 395.475,158.893C394.082,160.158 392.468,161.138 390.635,161.835C388.802,162.532 386.84,162.88 384.75,162.88C382.697,162.88 380.744,162.532 378.893,161.835C377.041,161.138 375.428,160.158 374.053,158.893C372.678,157.628 371.587,156.088 370.78,154.273C369.973,152.458 369.57,150.432 369.57,148.195C369.57,145.958 369.973,143.942 370.78,142.145C371.587,140.348 372.678,138.827 374.053,137.58C375.428,136.333 377.041,135.38 378.893,134.72C380.744,134.06 382.697,133.73 384.75,133.73C386.84,133.73 388.802,134.06 390.635,134.72C392.468,135.38 394.082,136.333 395.475,137.58C396.868,138.827 397.968,140.348 398.775,142.145C399.582,143.942 399.985,145.958 399.985,148.195ZM391.295,148.195C391.295,147.315 391.148,146.453 390.855,145.61C390.562,144.767 390.14,144.024 389.59,143.383C389.04,142.741 388.362,142.218 387.555,141.815C386.748,141.412 385.813,141.21 384.75,141.21C383.687,141.21 382.752,141.412 381.945,141.815C381.138,142.218 380.469,142.741 379.938,143.383C379.406,144.024 379.003,144.767 378.728,145.61C378.453,146.453 378.315,147.315 378.315,148.195C378.315,149.075 378.453,149.937 378.728,150.78C379.003,151.623 379.415,152.384 379.965,153.063C380.515,153.741 381.193,154.282 382,154.685C382.807,155.088 383.742,155.29 384.805,155.29C385.868,155.29 386.803,155.088 387.61,154.685C388.417,154.282 389.095,153.741 389.645,153.063C390.195,152.384 390.608,151.623 390.883,150.78C391.158,149.937 391.295,149.075 391.295,148.195Z"
                      style="fill:white;fill-rule:nonzero;stroke:white;stroke-width:1.03px;"/>
                </g>
          <g transform="matrix(1,0,0,1,-11.7386,-0.77)">
                    <path
                      d="M423.69,162L423.69,147.04C423.69,146.27 423.626,145.537 423.498,144.84C423.369,144.143 423.158,143.529 422.865,142.998C422.572,142.466 422.159,142.044 421.628,141.733C421.096,141.421 420.427,141.265 419.62,141.265C418.813,141.265 418.108,141.421 417.503,141.733C416.897,142.044 416.393,142.475 415.99,143.025C415.587,143.575 415.284,144.208 415.083,144.923C414.881,145.638 414.78,146.38 414.78,147.15L414.78,162L405.705,162L405.705,134.61L414.45,134.61L414.45,138.405L414.56,138.405C414.89,137.818 415.321,137.241 415.853,136.673C416.384,136.104 417.008,135.618 417.723,135.215C418.438,134.812 419.217,134.482 420.06,134.225C420.903,133.968 421.802,133.84 422.755,133.84C424.588,133.84 426.147,134.17 427.43,134.83C428.713,135.49 429.749,136.343 430.538,137.388C431.326,138.433 431.894,139.633 432.243,140.99C432.591,142.347 432.765,143.703 432.765,145.06L432.765,162L423.69,162Z"
                      style="fill:white;fill-rule:nonzero;stroke:white;stroke-width:1.03px;"/>
                </g>
            </g>
        <g transform="matrix(1.60617,0,0,1.43003,-66.1371,28.3446)">
                <path
                  d="M151.55,171.605C158.192,178.38 167.63,183.273 178.293,186.277C184.584,188.05 191.287,189.161 198.061,189.603C201.394,189.821 204.745,189.879 208.065,189.729C211.434,189.576 214.772,189.217 218.03,188.691C223.17,187.859 228.11,186.626 232.689,185.039C237.847,183.251 242.51,181.005 246.52,178.446C247.083,178.131 247.312,177.363 247.032,176.731C246.752,176.099 246.068,175.841 245.506,176.156C240.701,178.489 235.039,180.179 228.881,181.414C226.111,181.97 223.249,182.42 220.316,182.788C217.494,183.141 214.612,183.389 211.696,183.585C208.649,183.789 205.566,183.918 202.476,183.953C197.84,184.005 193.196,183.853 188.639,183.414C174.528,182.054 161.324,178.064 152.45,170.395C152.152,170.116 151.709,170.161 151.461,170.495C151.213,170.829 151.253,171.326 151.55,171.605Z"
                  style="fill:rgb(13,110,253);"/>
            </g>
        <g transform="matrix(1.24089,0,0,0.997664,30.3912,102.317)">
                <path
                  d="M235.333,173.878C237.816,172.752 240.188,172.493 242.507,172.83C243.662,172.998 244.783,173.365 245.911,173.851C246.614,174.155 247.317,174.51 248.014,174.931C247.89,175.715 247.733,176.473 247.541,177.215C247.216,178.468 246.821,179.676 246.279,180.871C245.29,183.055 243.962,185.201 242.09,187.472C241.756,187.81 241.705,188.422 241.977,188.837C242.249,189.253 242.741,189.316 243.075,188.978C245.459,186.981 247.258,185.003 248.638,182.847C249.475,181.54 250.126,180.162 250.652,178.697C251.171,177.251 251.515,175.705 251.783,174.056C251.905,173.118 251.54,172.187 250.871,171.729C249.833,171.044 248.797,170.449 247.739,170.037C246.045,169.378 244.337,169.054 242.629,169.124C239.942,169.234 237.292,170.205 234.667,172.122C234.278,172.35 234.111,172.929 234.294,173.414C234.478,173.898 234.943,174.106 235.333,173.878Z"
                  style="fill:rgb(13,110,253);"/>
            </g>
        </g>
    </g>
</svg>
